<svg width="32" height="17" viewBox="0 0 32 17" fill="none" xmlns="http://www.w3.org/2000/svg">
<path id="&#60;" d="M-2.9115e-07 1.66518C-2.3689e-07 1.25141 0.874317 0.837638 2.62295 0.423866C4.80079 0.423866 7.6304 2.77026 11.1118 7.46305C14.148 10.1273 15.6662 11.7875 15.6662 12.4435C17.1128 11.626 20.5941 7.75572 26.1103 0.832596L28.7332 5.02388e-06C30.7203 0.534882 31.8092 1.08994 32 1.66519C32 2.1597 28.2961 6.71624 20.8882 15.3348L18.2891 17L16.9776 17C14.4978 17 12.1053 15.6174 9.8003 12.8522C3.26676 6.56486 -4.44665e-07 2.83586 -2.9115e-07 1.66518Z" fill="#DBDBDB"/>
</svg>
