<svg width="24" height="24" viewBox="0 0 24 24" fill="none" xmlns="http://www.w3.org/2000/svg">
<path d="M8.77861 5.10874C8.9733 5.0724 9.15913 5.09057 9.33612 5.16326C9.86708 4.89069 10.3892 4.70898 10.9024 4.61812C11.4511 4.54544 11.9998 4.50909 12.5484 4.50909C12.9555 4.50909 13.4687 4.58178 14.0882 4.72715C14.7253 4.85435 15.4687 5.17234 16.3182 5.68114C17.681 6.55335 18.6279 7.55277 19.1588 8.67938C19.7075 9.78783 19.9818 11.1416 19.9818 12.7406C19.8756 14.3761 19.6101 15.6571 19.1854 16.5839C18.7606 17.5106 18.1058 18.3555 17.2208 19.1187C16.7076 19.5548 16.0527 19.9001 15.2563 20.1545C14.4776 20.3907 13.6634 20.4997 12.8139 20.4816C10.3007 20.5724 8.3273 20 6.89372 18.7644C5.74331 17.9103 4.98227 16.9836 4.6106 15.9842C4.23893 14.9848 4.0354 14.0217 4 13.095C4 11.6413 4.19468 10.4329 4.58405 9.46983C4.99112 8.48858 5.53978 7.64362 6.23002 6.93495C6.60169 6.55335 7.00876 6.19902 7.45122 5.87193C7.89369 5.54485 8.33615 5.29046 8.77861 5.10874ZM9.12374 7.01672C7.95563 7.7254 7.1238 8.56127 6.62824 9.52434C6.09728 10.5419 5.84065 11.7412 5.85835 13.1222C5.94684 14.1035 6.20347 14.9575 6.62824 15.6844C7.053 16.3931 7.56626 16.9382 8.16801 17.3198C9.46001 18.083 10.9201 18.51 12.5484 18.6009C14.3537 18.6554 15.7253 18.1011 16.6633 16.9382C17.6014 15.7752 18.0881 14.3488 18.1235 12.6589C18.1235 11.3869 17.9376 10.3875 17.566 9.66063C17.1943 8.91561 16.681 8.27053 16.0262 7.7254C15.5306 7.36197 15.0616 7.07123 14.6191 6.85318C14.1944 6.61695 13.4333 6.42615 12.336 6.28079C11.8228 6.29896 11.3272 6.38981 10.8493 6.55335C10.4777 6.68055 10.1326 6.83501 9.81398 7.01672C9.5662 7.16209 9.33612 7.16209 9.12374 7.01672Z" fill="#FFAC75"/>
</svg>
