<svg width="24" height="24" viewBox="0 0 24 24" fill="none" xmlns="http://www.w3.org/2000/svg">
<path fill-rule="evenodd" clip-rule="evenodd" d="M9.33612 5.1632C9.15913 5.09051 8.9733 5.07234 8.77861 5.10868C8.33615 5.29039 7.89369 5.54479 7.45122 5.87187C7.00876 6.19895 6.60169 6.55329 6.23002 6.93489C5.53978 7.64356 4.99112 8.48852 4.58405 9.46977C4.19468 10.4328 4 11.6412 4 13.0949C4.0354 14.0217 4.23893 14.9847 4.6106 15.9841C4.98227 16.9836 5.74331 17.9103 6.89372 18.7643C8.3273 20 10.3007 20.5724 12.8139 20.4815C13.6634 20.4997 14.4776 20.3907 15.2563 20.1544C16.0527 19.9 16.7076 19.5548 17.2208 19.1187C18.1058 18.3555 18.7606 17.5105 19.1854 16.5838C19.6101 15.6571 19.8756 14.376 19.9818 12.7406C19.9818 11.1415 19.7075 9.78776 19.1588 8.67932C18.6279 7.55271 17.681 6.55329 16.3182 5.68108C15.4687 5.17228 14.7253 4.85429 14.0882 4.72709C13.4687 4.58172 12.9555 4.50903 12.5484 4.50903C11.9998 4.50903 11.4511 4.54538 10.9024 4.61806C10.3892 4.70892 9.86708 4.89063 9.33612 5.1632Z" fill="#FF9954"/>
<path d="M10.4737 13.9206C10.1654 13.4333 9.84714 12.8714 9.51896 12.235C9.19078 11.5985 8.83276 10.8278 8.44491 9.92277C8.34546 9.63437 8.3206 9.4305 8.37032 9.31116C8.42999 9.18187 8.5543 9.08242 8.74326 9.01281C8.90238 8.97303 9.06149 8.99292 9.22061 9.07248C9.38968 9.14209 9.51399 9.31613 9.59355 9.59459C9.83223 10.2708 10.1455 10.9869 10.5333 11.7427C10.9311 12.4886 11.3737 13.2195 11.861 13.9356C11.9505 14.0748 12.0251 14.1891 12.0848 14.2787C12.1544 14.3682 12.2588 14.4229 12.398 14.4427C12.4776 14.4129 12.5323 14.3582 12.5621 14.2787C12.5919 14.1991 12.6665 14.0101 12.7859 13.7118C13.0544 13.125 13.3229 12.5134 13.5914 11.877C13.8699 11.2405 14.1533 10.5941 14.4417 9.93769C14.5113 9.72885 14.6157 9.5747 14.755 9.47525C14.9041 9.36586 15.0633 9.35094 15.2323 9.4305C15.4312 9.52 15.5555 9.63437 15.6053 9.7736C15.655 9.90288 15.645 10.0471 15.5754 10.2062C15.0782 11.2803 14.6356 12.2499 14.2478 13.1151C13.8699 13.9704 13.5367 14.7212 13.2483 15.3676C13.0892 15.6859 12.935 15.8848 12.7859 15.9643C12.6367 16.0439 12.4726 16.0837 12.2936 16.0837C12.1444 16.0638 12.0251 16.0489 11.9356 16.0389C11.8461 16.019 11.7019 15.8698 11.503 15.5914C11.4433 15.5417 11.3488 15.4024 11.2195 15.1737C11.0903 14.945 10.8416 14.5273 10.4737 13.9206Z" fill="white"/>
</svg>
