<svg width="15" height="12" viewBox="0 0 15 12" fill="none" xmlns="http://www.w3.org/2000/svg">
<path d="M5.88221 1.80549C5.88221 1.13453 5.91936 0.666893 5.99366 0.402575C6.08654 0.138258 6.35588 0.00609963 6.80169 0.00609963C7.34038 -0.0345646 7.6283 0.128092 7.66545 0.49407C7.72117 0.860047 7.74904 1.23619 7.74904 1.6225C7.76761 2.88309 7.82334 4.15385 7.91622 5.43477C9.47655 5.41444 11.3805 5.3941 13.6282 5.37377C13.9625 5.37377 14.269 5.46527 14.5476 5.64825C14.8448 5.81091 14.9934 6.13622 14.9934 6.6242C15.0306 6.96984 14.9099 7.19349 14.6312 7.29515C14.3526 7.39681 13.9997 7.43748 13.5724 7.41715C11.5663 7.41715 9.74589 7.42731 8.11126 7.44764C8.22271 8.48458 8.34345 9.38936 8.47348 10.162C8.58493 10.6296 8.60351 11.0464 8.5292 11.4124C8.47348 11.758 8.25057 11.9512 7.86049 11.9919C7.37753 12.0325 7.04317 11.9207 6.85742 11.6564C6.67166 11.3921 6.56021 11.0159 6.52306 10.528C6.37446 9.65368 6.24443 8.63707 6.13298 7.47814C4.27544 7.51881 2.54793 7.53914 0.950441 7.53914C0.356028 7.5798 0.0402467 7.32565 0.0030959 6.77669C-0.0340549 5.90241 0.263151 5.47543 0.894715 5.49576C2.90086 5.47543 4.60051 5.46527 5.99366 5.46527C5.93794 4.286 5.90078 3.06608 5.88221 1.80549Z" fill="white"/>
</svg>
