<svg width="100" height="100" viewBox="0 0 100 100" fill="none" xmlns="http://www.w3.org/2000/svg">
<g id="icon_money">
<path id="Vector" d="M87.4999 16.6666H12.4999C11.3948 16.6666 10.335 17.1056 9.55364 17.887C8.77224 18.6684 8.33325 19.7282 8.33325 20.8333V79.1666C8.33325 80.2717 8.77224 81.3315 9.55364 82.1129C10.335 82.8943 11.3948 83.3333 12.4999 83.3333H87.4999C88.605 83.3333 89.6648 82.8943 90.4462 82.1129C91.2276 81.3315 91.6666 80.2717 91.6666 79.1666V20.8333C91.6666 19.7282 91.2276 18.6684 90.4462 17.887C89.6648 17.1056 88.605 16.6666 87.4999 16.6666ZM83.3333 62.5C80.018 62.5 76.8386 63.8169 74.4944 66.1611C72.1502 68.5053 70.8332 71.6848 70.8332 75H29.1666C29.1666 71.6848 27.8496 68.5053 25.5054 66.1611C23.1612 63.8169 19.9818 62.5 16.6666 62.5V37.5C19.9818 37.5 23.1612 36.183 25.5054 33.8388C27.8496 31.4946 29.1666 28.3152 29.1666 25H70.8332C70.8332 28.3152 72.1502 31.4946 74.4944 33.8388C76.8386 36.183 80.018 37.5 83.3333 37.5V62.5Z" fill="#FF8533"/>
<path id="Vector_2" d="M49.9999 33.3334C40.8083 33.3334 33.3333 40.8084 33.3333 50C33.3333 59.1917 40.8083 66.6667 49.9999 66.6667C59.1916 66.6667 66.6666 59.1917 66.6666 50C66.6666 40.8084 59.1916 33.3334 49.9999 33.3334ZM49.9999 58.3334C45.4041 58.3334 41.6666 54.5959 41.6666 50C41.6666 45.4042 45.4041 41.6667 49.9999 41.6667C54.5958 41.6667 58.3333 45.4042 58.3333 50C58.3333 54.5959 54.5958 58.3334 49.9999 58.3334Z" fill="#FF8533"/>
</g>
</svg>
