<svg width="24" height="24" viewBox="0 0 24 24" fill="none" xmlns="http://www.w3.org/2000/svg">
<g id="icon_kakaotalk">
<g id="Vector">
<path d="M0 12C0 5.3726 5.3726 0 12 0C18.6274 0 24 5.3726 24 12C24 18.6274 18.6274 24 12 24C5.3726 24 0 18.6274 0 12Z" fill="#FFE812"/>
<path d="M12 5.5C7.5817 5.5 4 8.3241 4 11.8077C4 14.0599 5.4974 16.0361 7.74985 17.1521C7.6273 17.5747 6.9624 19.8708 6.9359 20.0513C6.9359 20.0513 6.92 20.1867 7.00775 20.2384C7.09555 20.2901 7.19875 20.25 7.19875 20.25C7.45045 20.2148 10.1174 18.3415 10.5791 18.0162C11.0402 18.0815 11.5151 18.1154 12 18.1154C16.4183 18.1154 20 15.2914 20 11.8077C20 8.3241 16.4183 5.5 12 5.5Z" fill="#381F1F"/>
<path fill-rule="evenodd" clip-rule="evenodd" d="M7.5769 14.0097C7.32235 14.0097 7.11535 13.812 7.11535 13.5689V10.827H6.3952C6.14545 10.827 5.9423 10.6242 5.9423 10.375C5.9423 10.1259 6.1455 9.9231 6.3952 9.9231H8.7586C9.00835 9.9231 9.2115 10.1259 9.2115 10.375C9.2115 10.6242 9.0083 10.827 8.7586 10.827H8.03845V13.5689C8.03845 13.812 7.83145 14.0097 7.5769 14.0097ZM11.624 14.0037C11.4315 14.0037 11.2843 13.9255 11.2399 13.7998L11.0114 13.2015L9.60395 13.2014L9.3753 13.8001C9.33105 13.9256 9.1839 14.0037 8.99145 14.0037C8.8902 14.0038 8.7901 13.982 8.69805 13.94C8.5708 13.8813 8.4485 13.7199 8.58865 13.2846L9.69265 10.3787C9.77045 10.1577 10.0067 9.93 10.3073 9.92315C10.6088 9.92995 10.8449 10.1577 10.9229 10.3792L12.0265 13.2837C12.1669 13.72 12.0446 13.8815 11.9173 13.94C11.8252 13.982 11.7252 14.0037 11.624 14.0037ZM10.3076 11.0744L10.7687 12.384H9.84665L10.3076 11.0744ZM12.7692 13.9424C12.5253 13.9424 12.3269 13.7525 12.3269 13.5193V10.3847C12.3269 10.1301 12.5382 9.9231 12.798 9.9231C13.0578 9.9231 13.2692 10.1301 13.2692 10.3847V13.0962H14.25C14.4939 13.0962 14.6923 13.286 14.6923 13.5193C14.6923 13.7525 14.4939 13.9424 14.25 13.9424H12.7692ZM14.8718 13.5421C14.8718 13.7967 15.0788 14.0037 15.3333 14.0037C15.4557 14.0035 15.5731 13.9548 15.6596 13.8682C15.7462 13.7817 15.7949 13.6643 15.795 13.5419V12.5349L15.9552 12.3747L17.0376 13.8089C17.0804 13.8661 17.1361 13.9125 17.2001 13.9444C17.2641 13.9763 17.3348 13.9927 17.4062 13.9924C17.5065 13.9925 17.6041 13.9599 17.6839 13.8992C17.7324 13.8628 17.7732 13.8172 17.8039 13.765C17.8346 13.7127 17.8547 13.6549 17.8629 13.5948C17.8716 13.5348 17.8682 13.4736 17.8529 13.415C17.8377 13.3563 17.8111 13.3012 17.7743 13.2529L16.6382 11.7478L17.69 10.6962C17.7623 10.6238 17.7986 10.524 17.7919 10.4152C17.7852 10.3073 17.737 10.2034 17.6562 10.1226C17.5695 10.0359 17.4538 9.98625 17.3386 9.98625C17.2398 9.98625 17.1488 10.0227 17.0826 10.089L15.7949 11.3767V10.3847C15.7949 10.1301 15.5879 9.9231 15.3333 9.9231C15.0788 9.9231 14.8718 10.1301 14.8718 10.3847V13.5421Z" fill="#FFE812"/>
</g>
</g>
</svg>
