<svg width="24" height="24" viewBox="0 0 24 24" fill="none" xmlns="http://www.w3.org/2000/svg">
<g id="icon_google" clip-path="url(#clip0_80_25108)">
<g id="Vector">
<path d="M23.766 12.2764C23.766 11.4607 23.6999 10.6406 23.5588 9.83806H12.24V14.459H18.7217C18.4528 15.9494 17.5885 17.2678 16.323 18.1056V21.1039H20.19C22.4609 19.0139 23.766 15.9273 23.766 12.2764Z" fill="#4285F4"/>
<path d="M12.24 24.0008C15.4764 24.0008 18.2058 22.9382 20.1944 21.1039L16.3274 18.1055C15.2516 18.8375 13.8626 19.252 12.2444 19.252C9.11377 19.252 6.45935 17.1399 5.50693 14.3003H1.51649V17.3912C3.5536 21.4434 7.70278 24.0008 12.24 24.0008Z" fill="#34A853"/>
<path d="M5.50254 14.3003C4.99987 12.8099 4.99987 11.1961 5.50254 9.70576V6.61482H1.5165C-0.185504 10.0056 -0.185516 14.0005 1.51649 17.3912L5.50254 14.3003Z" fill="#FBBC04"/>
<path d="M12.24 4.74966C13.9508 4.7232 15.6043 5.36697 16.8433 6.54867L20.2694 3.12262C18.1 1.0855 15.2207 -0.034466 12.24 0.000808666C7.70278 0.000808666 3.55361 2.55824 1.5165 6.61482L5.50254 9.70576C6.45054 6.86174 9.10936 4.74966 12.24 4.74966Z" fill="#EA4335"/>
</g>
</g>
<defs>
<clipPath id="clip0_80_25108">
<rect width="24" height="24" fill="white"/>
</clipPath>
</defs>
</svg>
